<svg preserveAspectRatio="none" width="100%" height="100%" overflow="visible" style="display: block;" viewBox="0 0 42 42" fill="none" xmlns="http://www.w3.org/2000/svg">
<g id="Solid / lock">
<path id="Vector" d="M29.75 15.75V12.25C29.75 7.35 25.9 3.5 21 3.5C16.1 3.5 12.25 7.35 12.25 12.25V15.75C9.275 15.75 7 18.025 7 21V33.25C7 36.225 9.275 38.5 12.25 38.5H29.75C32.725 38.5 35 36.225 35 33.25V21C35 18.025 32.725 15.75 29.75 15.75ZM15.75 12.25C15.75 9.275 18.025 7 21 7C23.975 7 26.25 9.275 26.25 12.25V15.75H15.75V12.25Z" fill="var(--fill-0, #CDECE9)"/>
</g>
</svg>
