<svg preserveAspectRatio="none" width="100%" height="100%" overflow="visible" style="display: block;" viewBox="0 0 19 19" fill="none" xmlns="http://www.w3.org/2000/svg">
<g id="Sports / card">
<path id="Vector" d="M15.96 3.95833C15.1158 3.12289 14.0009 2.61667 12.8163 2.53102C11.6317 2.44537 10.4556 2.78593 9.5 3.49125C8.49273 2.74205 7.23899 2.40232 5.99127 2.54049C4.74355 2.67865 3.59452 3.28445 2.77556 4.23588C1.95661 5.18731 1.52857 6.4137 1.57763 7.66809C1.6267 8.92248 2.14923 10.1117 3.04 10.9962L7.79 15.7858C8.23531 16.2306 8.83896 16.4804 9.46833 16.4804C10.0977 16.4804 10.7014 16.2306 11.1467 15.7858L15.8967 10.9962C16.3645 10.5392 16.7374 9.99416 16.9939 9.39252C17.2504 8.79088 17.3855 8.14447 17.3913 7.49046C17.3972 6.83644 17.2738 6.18771 17.0282 5.58155C16.7825 4.97539 16.4195 4.42375 15.96 3.95833V3.95833ZM14.8437 9.86417L10.0938 14.6142C10.0202 14.6884 9.9326 14.7473 9.83612 14.7875C9.73965 14.8276 9.63618 14.8483 9.53167 14.8483C9.42716 14.8483 9.32368 14.8276 9.22721 14.7875C9.13074 14.7473 9.04318 14.6884 8.96958 14.6142L4.21958 9.86417C3.59873 9.22952 3.25107 8.37699 3.25107 7.48917C3.25107 6.60134 3.59873 5.74881 4.21958 5.11417C4.85225 4.48953 5.70552 4.13928 6.59458 4.13928C7.48365 4.13928 8.33692 4.48953 8.96958 5.11417C9.04318 5.18837 9.13074 5.24726 9.22721 5.28746C9.32368 5.32765 9.42716 5.34834 9.53167 5.34834C9.63618 5.34834 9.73965 5.32765 9.83612 5.28746C9.9326 5.24726 10.0202 5.18837 10.0938 5.11417C10.7435 4.59712 11.5609 4.33732 12.3899 4.38432C13.219 4.43132 14.0017 4.78183 14.5889 5.36901C15.1761 5.95618 15.5266 6.73893 15.5736 7.56799C15.6206 8.39704 15.3608 9.21439 14.8437 9.86417V9.86417Z" fill="var(--fill-0, white)"/>
</g>
</svg>
