<svg preserveAspectRatio="none" width="100%" height="100%" overflow="visible" style="display: block;" viewBox="0 0 14 14" fill="none" xmlns="http://www.w3.org/2000/svg">
<g id="User Interface / Fire">
<path id="Vector" d="M4.93953 4.89681L4.93822 4.89788L4.93697 4.89909L4.93953 4.89681ZM10.7461 4.788C10.7055 4.74889 10.6605 4.71466 10.6119 4.68603C10.5432 4.64558 10.4669 4.61966 10.3878 4.60987C10.3086 4.60008 10.2283 4.60662 10.1518 4.6291C10.0753 4.65158 10.0042 4.68951 9.94295 4.74056C9.88168 4.7916 9.83153 4.85467 9.79561 4.92586C9.59467 5.32176 9.31753 5.67409 8.98011 5.96264C9.03171 5.67191 9.05772 5.37722 9.05787 5.08194C9.05895 4.18367 8.82198 3.30115 8.37108 2.52424C7.92018 1.74733 7.27146 1.10378 6.49097 0.659108C6.40499 0.610369 6.30804 0.584272 6.20921 0.583266C6.11039 0.582261 6.01292 0.606379 5.92597 0.653358C5.83902 0.700337 5.76542 0.768636 5.7121 0.851848C5.65877 0.935059 5.62746 1.03045 5.6211 1.12908C5.58846 1.68218 5.44386 2.2229 5.19608 2.71847C4.94829 3.21404 4.60248 3.65415 4.17958 4.01213L4.04514 4.1215C3.60293 4.41905 3.2115 4.78586 2.88588 5.20784C2.37973 5.84549 2.02911 6.59229 1.86182 7.38903C1.69452 8.18577 1.71516 9.01053 1.9221 9.7979C2.12903 10.5853 2.51657 11.3136 3.05398 11.9251C3.59139 12.5367 4.26389 13.0146 5.01815 13.321C5.10671 13.3572 5.20281 13.371 5.29799 13.3613C5.39316 13.3515 5.48447 13.3185 5.56387 13.2652C5.64328 13.2118 5.70832 13.1397 5.75328 13.0553C5.79824 12.9708 5.82173 12.8766 5.82167 12.7809C5.82125 12.719 5.81145 12.6576 5.79262 12.5986C5.66211 12.1081 5.62453 11.5974 5.68181 11.093C6.23379 12.1341 7.11981 12.9593 8.19744 13.436C8.32897 13.4949 8.47768 13.5028 8.61472 13.4583C9.46613 13.1834 10.2331 12.6955 10.8428 12.0408C11.4526 11.3861 11.8847 10.5863 12.0983 9.71751C12.3119 8.84872 12.2998 7.93974 12.0631 7.07695C11.8264 6.21417 11.3731 5.42623 10.7461 4.788V4.788ZM8.4683 12.2728C7.95982 12.0151 7.51127 11.6533 7.15181 11.2108C6.79235 10.7684 6.53003 10.2552 6.38192 9.70475C6.33668 9.5194 6.30169 9.3317 6.2771 9.1425C6.26044 9.02201 6.20654 8.90974 6.12294 8.82139C6.03934 8.73304 5.93022 8.67303 5.81083 8.64974C5.77405 8.64248 5.73665 8.63886 5.69917 8.63892C5.59664 8.63888 5.49592 8.66588 5.40716 8.71719C5.31839 8.7685 5.24473 8.8423 5.19359 8.93117C4.70958 9.76599 4.46617 10.7185 4.49034 11.6832C4.06465 11.3522 3.70888 10.94 3.44365 10.4706C3.17843 10.0011 3.00902 9.48362 2.94525 8.94818C2.88148 8.41274 2.92461 7.86997 3.07216 7.35132C3.2197 6.83268 3.46871 6.34847 3.80476 5.92677C4.05991 5.59534 4.36773 5.30803 4.71592 5.07627C4.731 5.06654 4.74546 5.05589 4.75922 5.04437C4.75922 5.04437 4.93229 4.90117 4.9382 4.89789C5.76928 4.19496 6.36037 3.25028 6.62913 2.19549C7.26472 2.78304 7.68852 3.56401 7.83474 4.41712C7.98096 5.27023 7.84141 6.14776 7.43777 6.91343C7.38444 7.0156 7.36256 7.13127 7.3749 7.24586C7.38723 7.36045 7.43323 7.46882 7.50708 7.5573C7.58093 7.64578 7.67934 7.71041 7.78988 7.74303C7.90041 7.77565 8.01814 7.7748 8.1282 7.74059C9.02174 7.4605 9.80802 6.91338 10.3812 6.17289C10.7257 6.68172 10.9509 7.26174 11.0401 7.86972C11.1293 8.4777 11.0801 9.09796 10.8962 9.68429C10.7123 10.2706 10.3985 10.8079 9.97813 11.2561C9.55775 11.7043 9.04165 12.0518 8.46828 12.2728L8.4683 12.2728Z" fill="var(--fill-0, #BD07D5)"/>
</g>
</svg>
