<svg preserveAspectRatio="none" width="100%" height="100%" overflow="visible" style="display: block;" viewBox="0 0 33 33" fill="none" xmlns="http://www.w3.org/2000/svg">
<g id="crown">
<path id="Vector" d="M23.375 30.25H9.625C9.06125 30.25 8.59375 29.7825 8.59375 29.2188C8.59375 28.655 9.06125 28.1875 9.625 28.1875H23.375C23.9387 28.1875 24.4062 28.655 24.4062 29.2188C24.4062 29.7825 23.9387 30.25 23.375 30.25Z" fill="var(--fill-0, #FCBD2B)"/>
<path id="Vector_2" d="M27.9813 7.59L22.4813 11.5225C21.7525 12.045 20.7075 11.7288 20.3913 10.89L17.7925 3.96C17.3525 2.76375 15.6612 2.76375 15.2212 3.96L12.6088 10.8763C12.2925 11.7288 11.2612 12.045 10.5325 11.5088L5.0325 7.57625C3.9325 6.80625 2.475 7.8925 2.92875 9.17125L8.64875 25.19C8.84125 25.74 9.36375 26.0975 9.94125 26.0975H23.045C23.6225 26.0975 24.145 25.7262 24.3375 25.19L30.0575 9.17125C30.525 7.8925 29.0675 6.80625 27.9813 7.59ZM19.9375 20.2813H13.0625C12.4988 20.2813 12.0313 19.8138 12.0313 19.25C12.0313 18.6863 12.4988 18.2188 13.0625 18.2188H19.9375C20.5013 18.2188 20.9688 18.6863 20.9688 19.25C20.9688 19.8138 20.5013 20.2813 19.9375 20.2813Z" fill="var(--fill-0, #FCBD2B)"/>
<g id="Vector_3" opacity="0">
</g>
</g>
</svg>
