<svg preserveAspectRatio="none" width="100%" height="100%" overflow="visible" style="display: block;" viewBox="0 0 17 17" fill="none" xmlns="http://www.w3.org/2000/svg">
<g id="Chat / chat bubble">
<path id="Vector" d="M13.4583 1.41667H3.54167C2.97808 1.41667 2.43758 1.64055 2.03906 2.03906C1.64055 2.43758 1.41667 2.97808 1.41667 3.54167V10.625C1.41667 11.1886 1.64055 11.7291 2.03906 12.1276C2.43758 12.5261 2.97808 12.75 3.54167 12.75H11.7513L14.3721 15.3779C14.4383 15.4436 14.5168 15.4955 14.6031 15.5308C14.6894 15.566 14.7818 15.5839 14.875 15.5833C14.9679 15.5857 15.0601 15.5663 15.1442 15.5267C15.2735 15.4735 15.3843 15.3833 15.4624 15.2673C15.5406 15.1514 15.5826 15.0148 15.5833 14.875V3.54167C15.5833 2.97808 15.3595 2.43758 14.9609 2.03906C14.5624 1.64055 14.0219 1.41667 13.4583 1.41667ZM14.1667 13.1679L12.5446 11.5388C12.4784 11.4731 12.3999 11.4212 12.3136 11.3859C12.2273 11.3507 12.1349 11.3328 12.0417 11.3333H3.54167C3.35381 11.3333 3.17364 11.2587 3.0408 11.1259C2.90796 10.993 2.83333 10.8129 2.83333 10.625V3.54167C2.83333 3.35381 2.90796 3.17364 3.0408 3.0408C3.17364 2.90796 3.35381 2.83333 3.54167 2.83333H13.4583C13.6462 2.83333 13.8264 2.90796 13.9592 3.0408C14.092 3.17364 14.1667 3.35381 14.1667 3.54167V13.1679Z" fill="var(--fill-0, white)"/>
</g>
</svg>
