<svg preserveAspectRatio="none" width="100%" height="100%" overflow="visible" style="display: block;" viewBox="0 0 45.6299 59.3" fill="none" xmlns="http://www.w3.org/2000/svg">
<g id="Group 3183451">
<foreignObject x="-60" y="-60" width="165.63" height="179.3"><div xmlns="http://www.w3.org/1999/xhtml" style="backdrop-filter:blur(30px);clip-path:url(#bgblur_0_0_84_clip_path);height:100%;width:100%"></div></foreignObject><path id="Vector 372" data-figma-bg-blur-radius="60" d="M44.8994 41.7361C49.2872 25.6838 32.8808 9.15928 23.0559 0C14.1532 7.55405 -3.29932 24.2674 0.544721 41.7361C3.90254 56.9952 17.546 59.3 23.0559 59.3C28.5658 59.3 40.9707 56.1091 44.8994 41.7361Z" fill="var(--fill-0, #3AE2D1)"/>
<path id="Vector 373" d="M34.4958 39.0621C36.8166 30.13 28.1388 20.9351 22.9422 15.8386C18.2333 20.0419 9.00221 29.3419 11.0354 39.0621C12.8115 47.5529 20.0279 48.8354 22.9422 48.8354C25.8565 48.8354 32.4177 47.0599 34.4958 39.0621Z" fill="var(--fill-0, #51FBEA)"/>
<circle id="Ellipse 866" cx="22.7188" cy="38.3704" r="4.05394" fill="var(--fill-0, #F7FFFE)"/>
</g>
<defs>
<clipPath id="bgblur_0_0_84_clip_path" transform="translate(60 60)"><path d="M44.8994 41.7361C49.2872 25.6838 32.8808 9.15928 23.0559 0C14.1532 7.55405 -3.29932 24.2674 0.544721 41.7361C3.90254 56.9952 17.546 59.3 23.0559 59.3C28.5658 59.3 40.9707 56.1091 44.8994 41.7361Z"/>
</clipPath></defs>
</svg>
