<svg preserveAspectRatio="none" width="100%" height="100%" overflow="visible" style="display: block;" viewBox="0 0 91.5612 113" fill="none" xmlns="http://www.w3.org/2000/svg">
<g id="Group 3183453" filter="url(#filter0_d_0_105)">
<path id="Vector 372" d="M80.4156 75.4546C87.297 50.2797 61.5668 24.3645 46.1585 10C32.1964 21.847 4.82568 48.0584 10.8543 75.4546C16.1203 99.3854 37.5174 103 46.1585 103C54.7997 103 74.2542 97.9958 80.4156 75.4546Z" fill="var(--fill-0, #BD07D5)"/>
<path id="Vector 373" d="M64.0973 71.2608C67.7371 57.2526 54.1277 42.8323 45.9779 34.8394C38.593 41.4315 24.1159 56.0165 27.3046 71.2608C30.0899 84.5769 41.4074 86.5882 45.9779 86.5882C50.5484 86.5882 60.8384 83.8036 64.0973 71.2608Z" fill="var(--fill-0, #E88FF4)"/>
<circle id="Ellipse 866" cx="45.6329" cy="70.1766" r="6.35779" fill="var(--fill-0, #F7FFFE)"/>
</g>
<defs>
<filter id="filter0_d_0_105" x="8.97523e-08" y="0" width="91.5612" height="113" filterUnits="userSpaceOnUse" color-interpolation-filters="sRGB">
<feFlood flood-opacity="0" result="BackgroundImageFix"/>
<feColorMatrix in="SourceAlpha" type="matrix" values="0 0 0 0 0 0 0 0 0 0 0 0 0 0 0 0 0 0 127 0" result="hardAlpha"/>
<feOffset/>
<feGaussianBlur stdDeviation="5"/>
<feComposite in2="hardAlpha" operator="out"/>
<feColorMatrix type="matrix" values="0 0 0 0 0.86 0 0 0 0 0 0 0 0 0 1 0 0 0 0.5 0"/>
<feBlend mode="normal" in2="BackgroundImageFix" result="effect1_dropShadow_0_105"/>
<feBlend mode="normal" in="SourceGraphic" in2="effect1_dropShadow_0_105" result="shape"/>
</filter>
</defs>
</svg>
